<?xml version="1.0" ?><svg enable-background="new 0 0 512 512" id="Layer_2" version="1.1" viewBox="0 0 512 512" xml:space="preserve" xmlns="http://www.w3.org/2000/svg" xmlns:xlink="http://www.w3.org/1999/xlink"><g><line fill="none" stroke="#474747" stroke-linecap="round" stroke-linejoin="round" stroke-miterlimit="10" stroke-width="15" x1="308.87" x2="16.28" y1="319.286" y2="319.286"/><polyline fill="none" points="   16.28,62.759 495.78,62.759 495.78,319.286 477.732,319.286  " stroke="#474747" stroke-linecap="round" stroke-linejoin="round" stroke-miterlimit="10" stroke-width="15"/><path d="   M16.28,241.354H285.93c8.072,0,14.616,6.544,14.616,14.616v14.064c0,8.072-6.544,14.616-14.616,14.616H16.28" fill="none" stroke="#474747" stroke-linecap="round" stroke-linejoin="round" stroke-miterlimit="10" stroke-width="15"/><path d="   M50.403,215.376H29.784c-7.458,0-13.503-6.046-13.503-13.503v-16.289c0-7.458,6.046-13.503,13.503-13.503h20.619   c7.458,0,13.503,6.046,13.503,13.503v16.289C63.906,209.331,57.86,215.376,50.403,215.376z" fill="none" stroke="#474747" stroke-linecap="round" stroke-linejoin="round" stroke-miterlimit="10" stroke-width="15"/><path d="   M129.417,215.376h-20.619c-7.458,0-13.503-6.046-13.503-13.503v-16.289c0-7.458,6.046-13.503,13.503-13.503h20.619   c7.458,0,13.503,6.046,13.503,13.503v16.289C142.92,209.331,136.875,215.376,129.417,215.376z" fill="none" stroke="#474747" stroke-linecap="round" stroke-linejoin="round" stroke-miterlimit="10" stroke-width="15"/><path d="   M208.432,215.376h-20.619c-7.458,0-13.503-6.046-13.503-13.503v-16.289c0-7.458,6.046-13.503,13.503-13.503h20.619   c7.458,0,13.503,6.046,13.503,13.503v16.289C221.935,209.331,215.889,215.376,208.432,215.376z" fill="none" stroke="#474747" stroke-linecap="round" stroke-linejoin="round" stroke-miterlimit="10" stroke-width="15"/><path d="   M287.447,215.376h-20.619c-7.458,0-13.503-6.046-13.503-13.503v-16.289c0-7.458,6.046-13.503,13.503-13.503h20.619   c7.458,0,13.503,6.046,13.503,13.503v16.289C300.95,209.331,294.904,215.376,287.447,215.376z" fill="none" stroke="#474747" stroke-linecap="round" stroke-linejoin="round" stroke-miterlimit="10" stroke-width="15"/><path d="   M50.403,141.773H29.784c-7.458,0-13.503-6.046-13.503-13.503v-16.289c0-7.458,6.046-13.503,13.503-13.503h20.619   c7.458,0,13.503,6.046,13.503,13.503v16.289C63.906,135.728,57.86,141.773,50.403,141.773z" fill="none" stroke="#474747" stroke-linecap="round" stroke-linejoin="round" stroke-miterlimit="10" stroke-width="15"/><path d="   M129.417,141.773h-20.619c-7.458,0-13.503-6.046-13.503-13.503v-16.289c0-7.458,6.046-13.503,13.503-13.503h20.619   c7.458,0,13.503,6.046,13.503,13.503v16.289C142.92,135.728,136.875,141.773,129.417,141.773z" fill="none" stroke="#474747" stroke-linecap="round" stroke-linejoin="round" stroke-miterlimit="10" stroke-width="15"/><path d="   M208.432,141.773h-20.619c-7.458,0-13.503-6.046-13.503-13.503v-16.289c0-7.458,6.046-13.503,13.503-13.503h20.619   c7.458,0,13.503,6.046,13.503,13.503v16.289C221.935,135.728,215.889,141.773,208.432,141.773z" fill="none" stroke="#474747" stroke-linecap="round" stroke-linejoin="round" stroke-miterlimit="10" stroke-width="15"/><path d="   M287.447,141.773h-20.619c-7.458,0-13.503-6.046-13.503-13.503v-16.289c0-7.458,6.046-13.503,13.503-13.503h20.619   c7.458,0,13.503,6.046,13.503,13.503v16.289C300.95,135.728,294.904,141.773,287.447,141.773z" fill="none" stroke="#474747" stroke-linecap="round" stroke-linejoin="round" stroke-miterlimit="10" stroke-width="15"/><path d="   M366.461,141.773h-20.619c-7.458,0-13.503-6.046-13.503-13.503v-16.289c0-7.458,6.046-13.503,13.503-13.503h20.619   c7.458,0,13.503,6.046,13.503,13.503v16.289C379.964,135.728,373.919,141.773,366.461,141.773z" fill="none" stroke="#474747" stroke-linecap="round" stroke-linejoin="round" stroke-miterlimit="10" stroke-width="15"/><path d="   M445.476,141.773h-20.619c-7.458,0-13.503-6.046-13.503-13.503v-16.289c0-7.458,6.046-13.503,13.503-13.503h20.619   c7.458,0,13.503,6.046,13.503,13.503v16.289C458.979,135.728,452.934,141.773,445.476,141.773z" fill="none" stroke="#474747" stroke-linecap="round" stroke-linejoin="round" stroke-miterlimit="10" stroke-width="15"/><path d="   M332.339,201.873v-16.289c0-7.458,6.046-13.503,13.503-13.503h99.634c7.458,0,13.503,6.046,13.503,13.503v16.289" fill="none" stroke="#474747" stroke-linecap="round" stroke-linejoin="round" stroke-miterlimit="10" stroke-width="15"/><path d="   M330.28,448.286l5.899-63.197c3.399-43.852,5.101-87.819,5.101-131.802v0c0-29.823,24.177-54,54-54h0c29.823,0,54,24.177,54,54   v17.242c0,32.493-1.257,64.975-3.768,97.371l-5.232,80.387" fill="none" stroke="#474747" stroke-linecap="round" stroke-linejoin="round" stroke-miterlimit="10" stroke-width="15"/><path d="   M380.28,253.286c0,0-0.492-28.971-7.746-48.986" fill="none" stroke="#474747" stroke-linecap="round" stroke-linejoin="round" stroke-miterlimit="10" stroke-width="15"/><path d="   M414.28,253.286c0,0,8.254-29.986,1-50" fill="none" stroke="#474747" stroke-linecap="round" stroke-linejoin="round" stroke-miterlimit="10" stroke-width="15"/></g></svg>